<svg xmlns="http://www.w3.org/2000/svg" viewBox="0 0 320 280" role="img" aria-label="Stylized cat">
<defs><linearGradient id="bg" x2="1" y2="1"><stop stop-color="#f4c6a5"/><stop offset="1" stop-color="#ffffff"/></linearGradient><filter id="s"><feDropShadow dx="0" dy="8" stdDeviation="8" flood-opacity=".18"/></filter></defs>
<rect width="320" height="280" rx="34" fill="url(#bg)"/><circle cx="48" cy="44" r="18" fill="#727c90" opacity=".16"/><circle cx="276" cy="224" r="30" fill="#727c90" opacity=".12"/>
<g fill="#727c90" filter="url(#s)" stroke="#202631" stroke-width="3" stroke-linejoin="round"><style>.light{fill:#f4c6a5}.dark{fill:#202631;stroke:none}</style><path d="M99 112 91 46l57 43M221 112l8-66-57 43"/><ellipse cx="160" cy="143" rx="78" ry="72"/><path class="light" d="M116 151q44 52 88 0-12 51-44 51t-44-51"/><path class="dark" d="m160 148-11 8 11 9 11-9z"/><path class="dark" fill="none" stroke-width="5" d="M115 165 65 155m52 24-50 10m138-24 50-10m-52 24 50 10"/><circle class="dark" cx="132" cy="130" r="7"/><circle class="dark" cx="188" cy="130" r="7"/></g>
<text x="160" y="260" text-anchor="middle" font-family="system-ui,sans-serif" font-size="18" font-weight="700" letter-spacing="2" fill="#202631">CAT</text></svg>